<?xml version="1.0" standalone="no"?><!DOCTYPE svg PUBLIC "-//W3C//DTD SVG 1.1//EN" "http://www.w3.org/Graphics/SVG/1.1/DTD/svg11.dtd"><svg class="icon" width="200px" height="200.00px" viewBox="0 0 1024 1024" version="1.1" xmlns="http://www.w3.org/2000/svg"><path fill="#388E3C" d="M512 394.666667a147.2 147.2 0 1 1 147.2-147.2A147.626667 147.626667 0 0 1 512 394.666667z m0-209.066667a61.866667 61.866667 0 1 0 61.866667 61.866667A61.866667 61.866667 0 0 0 512 185.6zM810.666667 874.666667a147.2 147.2 0 1 1 147.2-147.2A147.626667 147.626667 0 0 1 810.666667 874.666667z m0-208.64a61.866667 61.866667 0 1 0 61.866666 61.44A61.866667 61.866667 0 0 0 810.666667 666.026667zM213.333333 874.666667a147.2 147.2 0 1 1 147.2-147.2A147.626667 147.626667 0 0 1 213.333333 874.666667z m0-208.64a61.866667 61.866667 0 1 0 61.866667 61.44A61.866667 61.866667 0 0 0 213.333333 666.026667zM844.373333 554.666667a42.666667 42.666667 0 0 1-42.666666-34.133334 298.666667 298.666667 0 0 0-98.986667-167.253333 42.666667 42.666667 0 0 1 55.466667-65.28 384 384 0 0 1 128 213.333333A42.666667 42.666667 0 0 1 853.333333 554.666667zM512 960a378.026667 378.026667 0 0 1-157.866667-34.133333 42.666667 42.666667 0 0 1 34.986667-77.653334 298.666667 298.666667 0 0 0 239.786667 2.56 42.666667 42.666667 0 1 1 33.706666 78.08 370.773333 370.773333 0 0 1-150.613333 31.146667zM180.48 549.973333a32 32 0 0 1-8.96 0 42.666667 42.666667 0 0 1-32.853333-50.346666 384 384 0 0 1 130.56-213.333334 42.666667 42.666667 0 0 1 60.16 5.973334 42.666667 42.666667 0 0 1-5.973334 59.733333 298.666667 298.666667 0 0 0-101.12 164.266667 42.666667 42.666667 0 0 1-41.813333 33.706666z"  /></svg>