<?xml version="1.0" standalone="no"?><!DOCTYPE svg PUBLIC "-//W3C//DTD SVG 1.1//EN" "http://www.w3.org/Graphics/SVG/1.1/DTD/svg11.dtd"><svg class="icon" width="200px" height="200.00px" viewBox="0 0 1024 1024" version="1.1" xmlns="http://www.w3.org/2000/svg"><path fill="#388E3C" d="M920.034137 140.490731c-0.566912-22.626323-17.801435-36.886095-42.488697-36.366256-24.728194 0.51984-37.468356 15.606443-41.530882 38.241976-2.104941 11.738345-1.427512 24.019043-1.549286 36.06131-0.207731 20.544919-0.056282 41.09393-0.056282 61.642942-3.212158 1.456165-6.42534 2.913353-9.637498 4.371564-10.789741-10.368138-21.397333-20.931728-32.395828-31.072693C693.246971 121.981169 575.633273 87.959308 443.919439 108.179838c-185.967482 28.548196-323.753615 183.377494-339.921853 376.655476-15.167444 181.307346 101.798501 356.487134 277.367145 415.417291 177.608094 59.615773 375.22694-9.772574 475.117998-166.997432 6.430456-10.121522 13.112646-20.512173 17.037025-31.703049 7.620561-21.736047 3.792373-41.971927-17.678638-53.586452-20.686135-11.187807-40.292682-6.694469-54.980195 12.294001-7.345292 9.496282-12.929474 20.329001-19.786649 30.229488-61.931514 89.431845-147.006122 138.160663-255.868505 143.467529-145.765875 7.105838-279.388175-87.443561-321.869708-226.804563-43.875277-143.933133 16.810874-299.018258 146.614196-374.675378 126.176724-73.54604 288.162002-52.440349 390.270565 51.261501 7.477298 7.593955 12.515035 17.590634 24.63712 35.025725-39.863916 0-70.553892-1.622964-100.988042 0.474814-28.105105 1.939165-42.99114 18.664082-42.759873 42.143842 0.225127 22.86066 16.154935 41.776476 43.198871 42.441625 70.588685 1.736551 141.252071 1.106194 211.876572 0.354064 23.267936-0.24764 42.529629-13.566994 43.23571-36.558637C921.742035 291.960515 921.927253 216.162178 920.034137 140.490731z" /></svg>