<?xml version="1.0" standalone="no"?><!DOCTYPE svg PUBLIC "-//W3C//DTD SVG 1.1//EN" "http://www.w3.org/Graphics/SVG/1.1/DTD/svg11.dtd"><svg class="icon" width="200px" height="200.00px" viewBox="0 0 1024 1024" version="1.1" xmlns="http://www.w3.org/2000/svg"><path fill="#388E3C" d="M589.960533 478.685867l132.437334-139.400534A43.144533 43.144533 0 1 1 785.066667 398.677333L664.439467 525.653333l11.8784-29.764266v442.094933a83.899733 83.899733 0 0 1-83.694934 83.626667 83.285333 83.285333 0 0 1-60.074666-25.531734L391.714133 850.602667a83.5584 83.5584 0 0 1-23.552-58.1632V516.164267L73.9328 232.2432a135.7824 135.7824 0 0 1-29.354667-148.343467A135.9872 135.9872 0 0 1 170.461867 0h676.4544c55.296 0 104.721067 33.041067 125.815466 84.104533a135.5776 135.5776 0 0 1-28.8768 147.524267l-59.8016 62.941867a43.144533 43.144533 0 1 1-62.600533-59.392c23.210667-24.576 23.210667-24.576 60.6208-63.761067a49.629867 49.629867 0 0 0-35.157333-85.060267h-676.522667a49.629867 49.629867 0 0 0-46.011733 30.72 49.152 49.152 0 0 0 10.171733 53.6576l320.170667 308.770134v311.773866l135.304533 140.014934v-452.608z" /></svg>