<?xml version="1.0" standalone="no"?><!DOCTYPE svg PUBLIC "-//W3C//DTD SVG 1.1//EN" "http://www.w3.org/Graphics/SVG/1.1/DTD/svg11.dtd"><svg class="icon" width="200px" height="200.00px" viewBox="0 0 1024 1024" version="1.1" xmlns="http://www.w3.org/2000/svg"><path fill="#388E3C" d="M787.5 164.6H236.7c-39.2 0-71.1 31.9-71.1 71.1 0 18.7 7.2 36.2 20.4 49.6 0.4 0.7 0.9 1.4 1.5 2l219.4 239V658.2c0 16.3 13.2 29.5 29.5 29.5s29.5-13.2 29.5-29.5v-1.1V505.5c0-2.3-0.9-4.5-2.5-6.1l-233-252.5c-0.5-0.7-1-1.4-1.7-1.9-1.7-1.4-4.5-4.6-4.5-9.3 0-6.9 5.6-12.5 12.5-12.5h550.7c6.9 0 12.5 5.6 12.5 12.5 0 4.7-2.8 7.9-4.5 9.3-0.7 0.6-1.3 1.2-1.7 2L561 499.4c-1.6 1.6-2.5 3.8-2.5 6.1s0.1 118.3 0.1 310.7c0 6.9-5.7 12.5-12.6 12.5-4.8 0-8-2.8-9.4-4.5-0.6-0.7-1.3-1.3-2-1.7l-36.1-35.3c-1.7-1.7-25-13.3-39.9 1.5-15.9 15.9-2.6 39.5-1.8 40.3l37.4 36.6c0.6 0.6 1.3 1.1 2 1.5 13.5 13.1 31.1 20.3 49.8 20.3 39.4 0 71.4-31.9 71.4-71.1V526.4l219.4-239c0.6-0.6 1.1-1.3 1.5-2 13.1-13.4 20.4-30.9 20.4-49.6-0.1-39.3-32-71.2-71.2-71.2z" /></svg>