<?xml version="1.0" standalone="no"?><!DOCTYPE svg PUBLIC "-//W3C//DTD SVG 1.1//EN" "http://www.w3.org/Graphics/SVG/1.1/DTD/svg11.dtd"><svg class="icon" width="200px" height="200.00px" viewBox="0 0 1024 1024" version="1.1" xmlns="http://www.w3.org/2000/svg"><path fill="#388E3C" d="M599.154026 511.920262a103.048539 103.048539 0 0 1 22.565955-64.242538l225.686134-282.140892a23.762031 23.762031 0 0 0 5.315891-14.831334V109.587084a23.762031 23.762031 0 0 0-23.762031-23.762031H195.252661a23.762031 23.762031 0 0 0-23.762031 23.762031v41.171572a23.682292 23.682292 0 0 0 5.31589 14.751597l225.739293 282.140892a103.101698 103.101698 0 0 1 22.565956 64.295696V830.607901a23.682292 23.682292 0 0 0 13.10367 21.263562l161.124643 80.588901V511.920262zM195.146343 6.698022h633.574417a102.99538 102.99538 0 0 1 102.942221 102.942221v41.171572a103.048539 103.048539 0 0 1-22.565956 64.242538l-225.446919 282.167471a23.762031 23.762031 0 0 0-5.31589 14.831335v433.245081a71.286093 71.286093 0 0 1-103.154857 63.790687l-172.580387-86.303483a102.942221 102.942221 0 0 1-56.906608-92.071225V512.053159a23.762031 23.762031 0 0 0-5.315891-14.831335L114.849816 215.027773a102.942221 102.942221 0 0 1-22.565956-64.295696V109.613663A102.99538 102.99538 0 0 1 195.226081 6.671443z" /></svg>