<?xml version="1.0" standalone="no"?><!DOCTYPE svg PUBLIC "-//W3C//DTD SVG 1.1//EN" "http://www.w3.org/Graphics/SVG/1.1/DTD/svg11.dtd"><svg t="1660491571357" class="icon" viewBox="0 0 1024 1024" version="1.1" xmlns="http://www.w3.org/2000/svg" p-id="6823" xmlns:xlink="http://www.w3.org/1999/xlink" width="200" height="200"><defs><style type="text/css">@font-face { font-family: feedback-iconfont; src: url("//at.alicdn.com/t/font_1031158_u69w8yhxdu.woff2?t=1630033759944") format("woff2"), url("//at.alicdn.com/t/font_1031158_u69w8yhxdu.woff?t=1630033759944") format("woff"), url("//at.alicdn.com/t/font_1031158_u69w8yhxdu.ttf?t=1630033759944") format("truetype"); }
</style></defs><path d="M913.248 235.2a32 32 0 0 0-44.352 9.024l-126.784 191.68-108.576-51.968a32 32 0 1 0-27.616 57.696l133.696 64a32.096 32.096 0 0 0 40.512-11.2l142.144-214.912a31.968 31.968 0 0 0-9.024-44.32zM584.928 669.472l-196.8-104.448 173.888-179.808a32 32 0 0 0-8.832-50.944L368 242.848a31.904 31.904 0 0 0-25.056-1.408L153.632 309.856a32 32 0 1 0 21.728 60.192l176.512-63.776 133.632 65.984-172.96 178.88c-1.504 1.568-2.08 3.648-3.232 5.44a31.776 31.776 0 0 0-6.688 11.36l-62.24 187.776-208.896 100.768a32 32 0 1 0 27.808 57.6l221.12-106.656a31.904 31.904 0 0 0 16.48-18.752l56.256-169.728 172.96 91.776-140.128 251.904a32 32 0 1 0 55.936 31.104l156-280.448a32.064 32.064 0 0 0-12.992-43.808zM640 320c88.224 0 160-71.776 160-160s-71.776-160-160-160-160 71.776-160 160 71.776 160 160 160z m0-256c52.928 0 96 43.072 96 96s-43.072 96-96 96-96-43.072-96-96 43.072-96 96-96z" p-id="6824" fill="#80C269"></path></svg>