<?xml version="1.0" standalone="no"?><!DOCTYPE svg PUBLIC "-//W3C//DTD SVG 1.1//EN" "http://www.w3.org/Graphics/SVG/1.1/DTD/svg11.dtd"><svg t="1660491552852" class="icon" viewBox="0 0 1024 1024" version="1.1" xmlns="http://www.w3.org/2000/svg" p-id="6413" xmlns:xlink="http://www.w3.org/1999/xlink" width="200" height="200"><defs><style type="text/css">@font-face { font-family: feedback-iconfont; src: url("//at.alicdn.com/t/font_1031158_u69w8yhxdu.woff2?t=1630033759944") format("woff2"), url("//at.alicdn.com/t/font_1031158_u69w8yhxdu.woff?t=1630033759944") format("woff"), url("//at.alicdn.com/t/font_1031158_u69w8yhxdu.ttf?t=1630033759944") format("truetype"); }
</style></defs><path d="M802.261333 256a21.141333 21.141333 0 0 1 21.034667 19.2l47.445333 469.333333a21.333333 21.333333 0 0 1-5.333333 16.448 20.949333 20.949333 0 0 1-15.701333 7.04h-139.242667a21.205333 21.205333 0 0 1-18.133333-10.368l-28.032-47.146666a100.650667 100.650667 0 0 0-86.016-49.066667h-132.437334a100.650667 100.650667 0 0 0-86.016 49.066667l-28.032 47.146666a21.205333 21.205333 0 0 1-18.133333 10.368H174.421333a20.906667 20.906667 0 0 1-15.701333-7.04 21.333333 21.333333 0 0 1-5.333333-16.448l47.445333-469.333333a21.12 21.12 0 0 1 21.013333-19.2h580.416m0-64H221.845333a84.842667 84.842667 0 0 0-84.117333 76.672l-47.445333 469.333333A85.034667 85.034667 0 0 0 174.421333 832h139.242667a84.437333 84.437333 0 0 0 72.533333-41.429333l28.032-47.168A36.885333 36.885333 0 0 1 445.866667 725.333333h132.437333a36.885333 36.885333 0 0 1 31.637333 18.069334l28.032 47.168a84.394667 84.394667 0 0 0 72.533334 41.429333h139.242666a85.034667 85.034667 0 0 0 84.138667-93.994667l-47.445333-469.333333A84.864 84.864 0 0 0 802.261333 192z" fill="#80C269" p-id="6414"></path><path d="M673.322667 554.666667a96 96 0 1 1 96-96 96 96 0 0 1-96 96z m0-128a32 32 0 1 0 32 32 32 32 0 0 0-32-32z m-256 64h-32v32a32 32 0 0 1-64 0V490.666667h-32a32 32 0 0 1 0-64h32v-32a32 32 0 0 1 64 0V426.666667h32a32 32 0 0 1 0 64z" fill="#80C269" p-id="6415"></path></svg>