<svg viewBox="0 0 2400 2400" xmlns:xlink="http://www.w3.org/1999/xlink" xmlns="http://www.w3.org/2000/svg" id="图层_7"><defs><style>.cls-1{fill:#edf4ff;}.cls-2{fill:url(#未命名的渐变_30);}.cls-3{fill:#f0f6ff;}.cls-4{fill:#fff;}.cls-5{fill:#cde2ff;}.cls-6{fill:#fafeff;}.cls-7{fill:url(#未命名的渐变_348);}.cls-8{fill:#121218;}.cls-9{fill:url(#未命名的渐变_348-2);}.cls-10{fill:#393940;}.cls-11{fill:url(#未命名的渐变_40);}.cls-12{fill:url(#未命名的渐变_218);}.cls-13{fill:url(#未命名的渐变_218-2);}.cls-14{fill:url(#未命名的渐变_37);}.cls-15{fill:url(#未命名的渐变_348-3);}.cls-16{fill:url(#未命名的渐变_348-4);}.cls-17{fill:url(#未命名的渐变_229);}.cls-18{fill:url(#未命名的渐变_218-3);}.cls-19{fill:#ef3c86;}.cls-20{fill:#285fd7;}.cls-21{fill:#fff4eb;}.cls-22{fill:url(#未命名的渐变_348-5);}.cls-23{fill:url(#未命名的渐变_218-4);}.cls-24{fill:url(#未命名的渐变_254);}.cls-25{fill:url(#未命名的渐变_218-5);}.cls-26{fill:#310;}.cls-27{fill:url(#未命名的渐变_254-2);}.cls-28{fill:url(#未命名的渐变_218-6);}.cls-29{fill:url(#未命名的渐变_348-6);}.cls-30{fill:#47444f;}.cls-31{fill:#ff889a;}</style><linearGradient gradientUnits="userSpaceOnUse" gradientTransform="translate(-1049.23 2116.98) rotate(-29.5)" y2="-233.12" x2="1606.36" y1="-233.12" x1="1492.16" id="未命名的渐变_30"><stop stop-color="#ecf5fe" offset="0"></stop><stop stop-color="#a0cafb" offset="1"></stop></linearGradient><linearGradient gradientUnits="userSpaceOnUse" gradientTransform="translate(1803.29 -1199.72) rotate(21.44)" y2="2730.52" x2="872.38" y1="2730.52" x1="434.64" id="未命名的渐变_348"><stop stop-color="#ffd7c2" offset="0"></stop><stop stop-color="#ffa5a5" offset="1"></stop></linearGradient><linearGradient xlink:href="#未命名的渐变_348" gradientTransform="matrix(1, 0, 0, 1, 0, 0)" y2="1445.82" x2="1039.86" y1="1445.82" x1="552.16" id="未命名的渐变_348-2"></linearGradient><linearGradient gradientUnits="userSpaceOnUse" y2="649.16" x2="2349.31" y1="649.16" x1="2033.36" id="未命名的渐变_40"><stop stop-color="#aad0fb" offset="0"></stop><stop stop-color="#f5faff" offset="1"></stop></linearGradient><linearGradient gradientUnits="userSpaceOnUse" gradientTransform="translate(127205.1 375768.64) rotate(180) scale(623.13 170.16)" y2="2204.1" x2="200.64" y1="2204.65" x1="200.64" id="未命名的渐变_218"><stop stop-color="#aad0fb" offset="0"></stop><stop stop-color="#488dfd" offset="1"></stop></linearGradient><linearGradient xlink:href="#未命名的渐变_218" gradientTransform="translate(132890.39 435716.23) rotate(180) scale(651.63 197.34)" y2="2204.16" x2="200.9" y1="2204.16" x1="200.35" id="未命名的渐变_218-2"></linearGradient><linearGradient gradientUnits="userSpaceOnUse" gradientTransform="translate(179520.14 446249.21) rotate(180) scale(884.03 202.16)" y2="2203.91" x2="200.9" y1="2203.79" x1="200.3" id="未命名的渐变_37"><stop stop-color="#f5faff" offset="0"></stop><stop stop-color="#9ec8fb" offset="1"></stop></linearGradient><linearGradient xlink:href="#未命名的渐变_348" gradientTransform="translate(1152.44 -864.75) rotate(14.8)" y2="1929.76" x2="346.33" y1="1929.76" x1="75.21" id="未命名的渐变_348-3"></linearGradient><linearGradient xlink:href="#未命名的渐变_348" gradientTransform="matrix(1, 0, 0, 1, 0, 0)" y2="903.84" x2="1211.65" y1="903.84" x1="1148.47" id="未命名的渐变_348-4"></linearGradient><linearGradient gradientUnits="userSpaceOnUse" gradientTransform="translate(1152.44 -864.75) rotate(14.8)" y2="1818.37" x2="441.48" y1="1818.37" x1="278" id="未命名的渐变_229"><stop stop-color="#69a6ff" offset="0"></stop><stop stop-color="#488dfd" offset="1"></stop></linearGradient><linearGradient xlink:href="#未命名的渐变_218" gradientTransform="matrix(1, 0, 0, 1, 0, 0)" y2="1054.83" x2="1223.32" y1="1054.83" x1="961.28" id="未命名的渐变_218-3"></linearGradient><linearGradient xlink:href="#未命名的渐变_348" gradientTransform="translate(-1689.61 5263.6) rotate(-62.03)" y2="688.71" x2="5362.64" y1="688.71" x1="4992.83" id="未命名的渐变_348-5"></linearGradient><linearGradient xlink:href="#未命名的渐变_218" gradientTransform="translate(-1689.61 5263.6) rotate(-62.03)" y2="552.57" x2="5161.65" y1="552.57" x1="4980.57" id="未命名的渐变_218-4"></linearGradient><linearGradient gradientUnits="userSpaceOnUse" y2="1931.5" x2="1790.13" y1="1931.5" x1="1526.89" id="未命名的渐变_254"><stop stop-color="#488dfd" offset="0"></stop><stop stop-color="#488dfd" offset="1"></stop></linearGradient><linearGradient xlink:href="#未命名的渐变_218" gradientTransform="matrix(1, 0, 0, 1, 0, 0)" y2="1894.3" x2="1786.07" y1="1894.3" x1="1513.91" id="未命名的渐变_218-5"></linearGradient><linearGradient xlink:href="#未命名的渐变_254" y2="1443.63" x2="459.81" y1="1443.63" x1="360.33" id="未命名的渐变_254-2"></linearGradient><linearGradient xlink:href="#未命名的渐变_218" gradientTransform="matrix(1, 0, 0, 1, 0, 0)" y2="1450.55" x2="512.18" y1="1450.55" x1="377.59" id="未命名的渐变_218-6"></linearGradient><linearGradient xlink:href="#未命名的渐变_348" gradientTransform="matrix(1, 0, 0, 1, 0, 0)" y2="833.25" x2="1272.58" y1="833.25" x1="1118.18" id="未命名的渐变_348-6"></linearGradient></defs><title>我的插画库</title><path d="M198.23,1260.58C143,1215,116.58,1195.12,77.05,1234.89c27-77.3,131.92-88.34,179.56-7.35s22.89,106.71,22.89,106.71S253,1305.82,198.23,1260.58Z" class="cls-1" id="Shape-234"></path><path d="M192.71,1180.34c-81-54.74-145-99.74-132.7-195.89-10.32,138.61,173.57,118.19,212.17,206.85s7.62,143,7.62,143S273.67,1235.08,192.71,1180.34Z" class="cls-2" id="Shape-235"></path><path d="M404.61,461.73H1555.69a112.63,112.63,0,0,1,112.63,112.63v756.87a112.63,112.63,0,0,1-112.63,112.63H404.61A112.63,112.63,0,0,1,292,1331.23h0V574.36A112.63,112.63,0,0,1,404.61,461.73Z" class="cls-3" id="Shape-170"></path><path d="M445.16,660H762.78a67.58,67.58,0,0,1,67.57,67.58v565.4a67.58,67.58,0,0,1-67.57,67.58H445.16a67.58,67.58,0,0,1-67.58-67.58h0V727.54A67.58,67.58,0,0,1,445.16,660Z" class="cls-4" id="Shape-171"></path><path d="M963.26,660h565.4a67.58,67.58,0,0,1,67.58,67.58v565.4a67.58,67.58,0,0,1-67.58,67.58H963.26a67.58,67.58,0,0,1-67.58-67.58h0V727.54A67.58,67.58,0,0,1,963.26,660Z" class="cls-4" id="Shape-172"></path><path d="M404.61,461.73H1555.69a112.63,112.63,0,0,1,112.63,112.63v11.27H292V574.36A112.63,112.63,0,0,1,404.61,461.73Z" class="cls-5" id="Shape-173"></path><circle r="34.92" cy="525.93" cx="412.5" class="cls-6" id="Shape-174"></circle><circle r="34.92" cy="525.93" cx="538.64" class="cls-6" id="Shape-175"></circle><path d="M1229.1,1468.26l73.42,44s86.68,215.42,193.47,302.71l71.23-27.44-115.83-282.29s-5-102.73-102-150.89S1229.1,1468.26,1229.1,1468.26Z" class="cls-7"></path><path d="M1153.91,1178.64s73.15,42.47,103.3,61.17c28,17.38,107.24,95.33,107.24,95.33s-116.24,247.15-201.67,175.54c-94.59-79.31-133.93-184.62-133.93-184.62Z" class="cls-8"></path><path d="M1039.86,1466.66s-9.38,103.17-84.41,112.54-403.29-107.85-403.29-107.85l42.37-64s187.41-11,295.27,35.91l56.27-131.3Z" class="cls-9"></path><path d="M1035.17,1138.4s-60.59,7.48-75,23.45C930,1195.12,825.24,1359,825.24,1359s214.62,178,247.44,135.81,107.86-332.94,107.86-332.94Z" class="cls-10"></path><path d="M2349.31,716.94l-316-93.24,85.57-42.33Z" class="cls-11" id="Shape-205"></path><path d="M2349.31,716.94l-316-93.24-25.5,68.16Z" class="cls-12" id="Shape-206"></path><path d="M2333.33,715.55,1989.85,800l-13.59-108.14Z" class="cls-13" id="Shape-226"></path><path d="M2351.5,716.61l-370.61-65.1L1867.08,762.29Z" class="cls-14" id="Shape-227"></path><path d="M911.63,909.14c-32.19-2.95-133,142.74-160,176.68l-1.66,1.26h0c-16.55,12.5-36.19,27.65-43.22,35.91a14.57,14.57,0,0,0-1,17.76,18.13,18.13,0,0,0,5.66,17.6A17,17,0,0,0,725.44,1174h0c-.65,4.66,5.29,14.75,13,13.86,9.14-1,21.48-12,21.48-12a23.94,23.94,0,0,0,15.15-7.43v0a20.8,20.8,0,0,0,4.74-10.72c.37-2.36.76-5.46,1.14-8.86,1.37-11.76,2.75-27,2.75-27l-.15-4.53,131-94.92,84-.94,37-87.66S956.63,913.24,911.63,909.14Z" class="cls-15"></path><path d="M1167.83,885c-2.09,10.12-19.36,38.56-19.36,38.56l55.61,31.12s4.8-42.54,7.45-70.34S1174.78,853,1174.78,853,1170.81,870.57,1167.83,885Z" class="cls-16"></path><path d="M960.22,1056.19l139.31,8,22.93-121.9L992.07,882.32a14.4,14.4,0,0,0-16.65,11.76l-30.11,142.61A16.19,16.19,0,0,0,960.22,1056.19Z" class="cls-17" id="Fill_331"></path><path d="M1214.51,970.21s-.6-1.25-1.59-3.19c0,0-4.59-24.62-8.68-27.1l-49-21.18s-15.46-8.83-66.46,21.08h0c-30,17.58-47.66,59.16-47.66,59.16L1022,1039.55c-14.58,25.58-36.74,50.64-54.57,68.74a21.39,21.39,0,0,0,10.74,35.89l28.79,6.26,47.67,4.63,41.71,16.22,83.41,20.86,33.17-90V1079.5c3.81-11.19,7.74-28,10-52.69C1223,1006,1225.93,1006,1214.51,970.21Z" class="cls-18"></path><path d="M1242.76,1042.74l-58,81.07,19.5,16.68,43.64-92.28Z" class="cls-19" id="Fill_349"></path><path d="M1242.76,1042.75l5.18,5.46,7.36-22.41Z" class="cls-20" id="Fill_359"></path><path d="M603.79,1404l-20.65,81.93-114.37-48.17,35.75-62.11Z" class="cls-21" id="Fill_367"></path><path d="M1603.83,1851.74l-65.17,44.69L1467.73,1788l79.66-52.44Z" class="cls-21" id="Fill_369"></path><path d="M1471.37,876.75c-.14-4.81-7.84-14-15.5-11.76-9,2.61-19.62,15.79-19.62,15.79a24.52,24.52,0,0,0-14,10.09v0a21.17,21.17,0,0,0-3,11.62c0,2.44.16,5.63.35,9.13.63,12.1,1.83,27.71,1.83,27.71l1.39,6.81L1298.91,1073l-56.15-30.25L1183.63,1123s80,75.62,135.63,66.52c44.75-7.32,138.42-212.25,142.5-221.21,14.52-15.37,31.57-33.83,37.22-43.31a14.89,14.89,0,0,0-2-18.09,18.51,18.51,0,0,0-8.71-16.79,17.37,17.37,0,0,0-16.9-13.37Z" class="cls-22"></path><path d="M1195.52,954.46l93.92,52a14.3,14.3,0,0,1,5.62,19.38l-71,129.69a14.32,14.32,0,0,1-22.22,3.69c-32.22-29.43-109.76-106.41-100-157.46,0,0,8.16-115.44,91.65-48.66A15.1,15.1,0,0,0,1195.52,954.46Z" class="cls-23"></path><path d="M1785.82,1876c34.16,57.11-144,108.63-217.49,110.9-32.59,1-49.52-13-37.65-41" class="cls-24"></path><path d="M1559.08,1949.85c.55-1.36-1.64-1.88-2.21-.59-4.69,11.46-5.54,23.51-3.69,35.48.21,1.39,2.42.81,2.22-.58a63.64,63.64,0,0,1,3.68-34.31Zm46.35.71c.07-1.38-2.22-1.39-2.29,0-.67,10.52-1.09,20.9.73,31.25.25,1.41,2.46.79,2.21-.58-1.81-10.17-1.3-20.38-.65-30.67Zm49.71-7.22c.22-1.42-2.11-1.42-2.29,0-1.24,8.92.85,18.79,4.17,27.05.54,1.3,2.75.71,2.21-.58-3.27-8.08-5.29-17.71-4.09-26.47ZM1697.5,1932c-.25-1.41-2.47-.83-2.18.57.71,3.87,1.33,7.76,2.37,11.54a54.13,54.13,0,0,0,4.78,11.55c.69,1.26,2.68.13,2-1.13-3.93-7.15-5.47-14.63-7-22.53Zm36.07-14a1.15,1.15,0,0,0-2.22.58c1.84,7.44,6.26,14.31,10.83,20.42.85,1.13,2.85,0,2-1.14-4.45-5.95-8.81-12.6-10.6-19.86Zm24.64-15.17c-1.23-.73-2.38,1.2-1.16,1.9,5.86,3.53,10,9.37,14.29,14.54.93,1.12,2.52-.48,1.64-1.57-4.36-5.33-8.69-11.24-14.77-14.87Zm0,0" class="cls-4"></path><path d="M1604.78,1840.9c-29.1,38.84-46,36-75.45,31.12-16.18-2.67-17.31,29.76-13.76,42.35,4.13,14.63,15.11,31.59,15.11,31.59,123,29.06,275.44-54.36,253.22-72.3-19.13-15.5-122,19.14-147.4-8.73-11.44-12.55-20.74-38.71-31.72-24Zm0,0" class="cls-25"></path><path d="M1747.81,1871c1,1,2.65-.58,1.63-1.6a41.8,41.8,0,0,0-5.13-4.33c-4.21-3-9.5-4-12.64,1-2.85,4.5-3.3,10.27-4.27,15.3-.39,2-.63,4.18-1.67,5.93a2.27,2.27,0,0,1-.54.67l-.18,0a3.56,3.56,0,0,1-2.36-1.61c-2.1-2.71-3.11-6.27-4.19-9.47a78,78,0,0,0-4-10.46c-1.14-2.2-2.85-4.82-5.59-5.19s-4.89,1.55-6.38,3.53c-4.58,6-6.27,13.67-10.07,20.09-1.23,2.06-3.25,5.36-6.13,5.21s-3.79-4-4.34-6.13c-1-3.72-1.41-7.59-2-11.41-.43-3-.78-6.42-2.36-9.11-2.82-4.86-10.83-1.09-14.4,1.1-9,5.52-14.69,14.86-17.91,24.38.58-.22,1.11-.44,1.68-.67-.86-.57-1.67-1.26-2.48-1.92-4.08-3.51-7.93-8.22-8.39-13.7a12.79,12.79,0,0,1,.52-5c.21-.7.38-1.54.93-1.87a7.71,7.71,0,0,1,1.77-.47,27.67,27.67,0,0,0,5.75-2.46,18.3,18.3,0,0,0,9.24-16.19c-.1-4.44-1.72-10.42-6.22-12.53-5.68-2.67-9.4,4.37-10.86,8.54-3.86,11-2.2,22.71-5.57,33.75-1.91,6.38-5.57,12.72-11.89,15.86-7.4,3.7-20.5,1.65-22.3-7.42-.94-4.79,3-8.86,6.88-11.36,9-5.85,20.52-7.87,31-9.29,1.44-.2.88-2.32-.56-2.13-3.51.47-7,1-10.4,1.75-8.57,1.81-18.38,4.47-24.88,10.65-3.49,3.27-5.5,7.92-3.8,12.44,3.52,9.3,16.69,11.48,25.17,7.24,6.31-3.18,10.26-9.34,12.47-15.64,3.89-11.18,2.17-23.11,5.76-34.36,1.14-3.6,4.54-11.24,9.13-7.3,3.93,3.36,4.52,10,3.22,14.61a15.94,15.94,0,0,1-5.38,8,21,21,0,0,1-5.37,3,25,25,0,0,1-3.55,1.08c-1.56.38-1.82,1-2.38,2.49-3.65,9.41,3.3,19,11,24a1.2,1.2,0,0,0,1.68-.67,53.11,53.11,0,0,1,3.81-8.77c4-7.18,10.45-14.61,18.85-16.9,1.77-.47,4.33-1.1,5.42.65,1.57,2.51,1.78,6,2.22,8.86a112.44,112.44,0,0,0,2,11.21c.71,2.54,1.71,5.73,4.17,7.13,5.8,3.28,10.3-5.11,12.23-9,1.7-3.45,3.09-7,4.74-10.5,1.23-2.67,2.67-6.08,5.17-8,5.32-4,8.52,8.48,9.49,11.29a68.57,68.57,0,0,0,3.92,10.07c1.07,2,2.78,4.54,5.36,4.61,3.9.11,4.48-6.52,4.93-9,.87-4.66,1.26-10.52,4.23-14.52,4-5.33,10.94,1.51,13.86,4.34Zm0,0" class="cls-26"></path><path d="M384.24,1552.35c-54.45-4.58-3.47-148.07,30.22-198.16,14.94-22.22,32.4-26.79,45.35-5.49" class="cls-27"></path><path d="M443.62,1365.77c.64,1,2-.19,1.45-1.19a54.12,54.12,0,0,0-21.9-19.45c-1-.53-1.69,1.23-.67,1.76a52.28,52.28,0,0,1,21.12,18.88Zm-22.68,30.58c.89.71,2-.82,1.1-1.53-6.7-5.48-13.41-10.74-21.19-14.48-1.06-.51-1.71,1.26-.67,1.75,7.65,3.67,14.21,8.9,20.76,14.26ZM402,1433c.84.83,1.95-.73,1.1-1.53-5.36-5.1-12.94-8.44-20-10.18-1.12-.26-1.8,1.5-.67,1.76,7,1.69,14.34,5,19.61,10Zm-12.75,33.66c1.06.51,1.73-1.24.66-1.72-2.92-1.39-5.81-2.83-8.83-4a44.27,44.27,0,0,0-10-2.34c-1.17-.15-1.37,1.72-.2,1.87,6.65.8,12.37,3.35,18.36,6.14Zm-7.91,30.79c1.07.41,1.74-1.35.67-1.76-5.84-2.33-12.53-2.68-18.79-2.56-1.17,0-1.37,1.9-.2,1.87,6.1-.11,12.62.17,18.32,2.45Zm-1.68,23.69a.92.92,0,0,0-.72-1.68c-5.16,2.22-11.05,2.22-16.53,2.57-1.19.08-.9,1.91.26,1.85,5.64-.36,11.65-.41,17-2.74Zm0,0" class="cls-4"></path><path d="M494.39,1448.44c-12-38-2-47.9,15.38-65.22,9.53-9.52-11.55-25.8-21.65-29.46-11.74-4.26-28.31-5.06-28.31-5.06-78.28,68.09-95.67,209.73-73.06,203.5,19.49-5.33,45.67-90.53,76.41-94.12,13.86-1.61,35.75,4.72,31.23-9.64Zm0,0" class="cls-28"></path><path d="M405.8,1529.41c-1.14.2-.88,2,.29,1.85a33.5,33.5,0,0,0,5.35-1.34c4-1.4,7.2-4.43,5.37-8.92-1.64-4-5.26-7.12-8.15-10.17a15.45,15.45,0,0,1-3.16-4,1.74,1.74,0,0,1-.19-.68l.05-.15a3,3,0,0,1,2.21-.8c2.81-.1,5.67.93,8.32,1.74a64.69,64.69,0,0,0,8.9,2.33c2,.3,4.58.41,6.15-1.24s1.3-4,.69-6c-1.82-5.93-6.1-10.72-8.57-16.33-.78-1.81-2-4.74-.54-6.59s4.51-.59,6.17,0a94.73,94.73,0,0,1,8.57,4.11c2.2,1.15,4.66,2.56,7.21,2.79,4.6.45,5.91-6.7,6.16-10.13.64-8.65-2.87-16.91-7.68-23.62-.12.49-.23.95-.36,1.44.79-.3,1.65-.51,2.47-.73,4.3-1,9.28-1.35,13.16,1a10.54,10.54,0,0,1,3,2.71c.37.48.85,1,.81,1.52a6.44,6.44,0,0,1-.54,1.4,22.39,22.39,0,0,0-1.11,5,15,15,0,0,0,6.37,13.91c3,2.06,7.77,3.85,11.33,1.86,4.51-2.51,1.59-8.36-.49-11.34-5.48-7.83-14.09-12.34-19.84-19.87-3.34-4.33-5.82-9.81-4.88-15.54,1.08-6.7,8.72-14.45,15.63-11.31,3.65,1.67,4.47,6.25,4.28,10-.4,8.78-4.58,17.45-8.64,25.1-.56,1.06,1.12,1.71,1.69.65,1.37-2.57,2.64-5.14,3.81-7.78,2.9-6.57,5.83-14.39,4.82-21.69-.51-3.89-2.65-7.46-6.48-8.49-7.89-2.11-15.65,5.64-16.88,13.32-.91,5.73,1.31,11.31,4.45,15.81,5.59,7.94,14.38,12.51,20.16,20.3,1.85,2.48,5.32,8.41.49,9.58-4.12,1-8.8-1.75-11.28-4.85a13.09,13.09,0,0,1-2.79-7.45,17,17,0,0,1,.57-5,19.5,19.5,0,0,1,1-2.88c.5-1.22.2-1.7-.52-2.78-4.52-6.94-14.24-6.89-21.31-4.16a1,1,0,0,0-.35,1.44,45.36,45.36,0,0,1,4,6.75c2.89,6.07,4.74,14,2.24,20.66-.54,1.41-1.34,3.42-3,3.31-2.42-.16-4.86-1.7-7-2.77a92,92,0,0,0-8.44-4c-2-.75-4.63-1.61-6.74-.64-5,2.3-1.54,9.32.15,12.48,1.48,2.79,3.21,5.43,4.73,8.19,1.19,2.1,2.78,4.69,2.83,7.26.1,5.45-9.74,1.62-12.08.92a55.8,55.8,0,0,0-8.59-2.21c-1.82-.22-4.36-.32-5.64,1.37-1.95,2.54,2.2,6.11,3.66,7.61,2.69,2.81,6.41,5.88,7.66,9.78,1.65,5.19-6.25,6.57-9.54,7.16Zm0,0" class="cls-26"></path><path d="M873.9,1805.84s59.58-83.42,131.08-59.58,280,137,434.94,113.2c0,0-351.53,143-631.56,41.71s-309.83-178.75-309.83-178.75-101.28-131.08,351.54,89.38" class="cls-5"></path><path d="M376.63,752.57s30-42,65.95-30,140.88,68.94,218.81,56.95c0,0-176.85,71.94-317.73,21s-155.87-89.92-155.87-89.92-51-66,176.85,45" class="cls-5"></path><path d="M1734.2,1591.46s-5.34-43,23.75-56.09,126.43-37.54,167.84-89.33c0,0-68.49,145.2-184.69,193.87S1593.44,1673,1593.44,1673s-69.08-11.8,135-72.86" class="cls-3"></path><path d="M1272.58,833.25c0,34.65-32.5,62.74-72.58,62.74s-81.82-34.62-81.82-69.28,41.73-56.2,81.82-56.2S1272.58,798.6,1272.58,833.25Z" class="cls-29"></path><path d="M1218.48,801.89s8.47,15.3,44.84,15.3,22.11-75.93-11.79-86.87c-67-21.61-63.67,13.48-63.67,13.48s-16.16-11.74-39.46-2.51S1127.48,781,1127.48,781s-33.21,4.24-33.21,27.36c0,10.13,9.37,22.36,19,39.44,5,8.88,41.58,34.49,41.58,34.49a32.29,32.29,0,0,0-2.23-2.51c-3.65-3.39-7.73-7.45-10.78-10.29-34.87-23.87-11.52-44.1-2.35-38s15.91,15.13,20.78,25.16c0,0,31.88-15.61,25.15-36.09C1208.82,831.05,1218.48,801.89,1218.48,801.89Z" class="cls-30" id="Shape-34"></path><circle r="20.85" cy="870.41" cx="1206.56" class="cls-31"></circle></svg>